<mxfile host="app.diagrams.net" modified="2021-05-03T15:58:18.955Z" agent="5.0 (Windows NT 10.0; Win64; x64) AppleWebKit/537.36 (KHTML, like Gecko) Chrome/90.0.4430.93 Safari/537.36" etag="RBEewLqjetW0K-3gL8Ti" version="14.6.6" type="github">
  <diagram id="xsaul8nzx77Pmh5blnUk" name="Page-1">
    <mxGraphModel dx="1117" dy="624" grid="1" gridSize="10" guides="1" tooltips="1" connect="1" arrows="1" fold="1" page="1" pageScale="1" pageWidth="827" pageHeight="1169" math="0" shadow="0">
      <root>
        <mxCell id="0" />
        <mxCell id="1" parent="0" />
        <mxCell id="jXTK6wrwz0z1EruY5HuL-1" value="" style="rounded=0;html=1;jettySize=auto;orthogonalLoop=1;fontSize=11;endArrow=block;endFill=0;endSize=8;strokeWidth=1;shadow=0;labelBackgroundColor=none;edgeStyle=orthogonalEdgeStyle;" edge="1" parent="1" source="jXTK6wrwz0z1EruY5HuL-2" target="jXTK6wrwz0z1EruY5HuL-5">
          <mxGeometry relative="1" as="geometry" />
        </mxCell>
        <mxCell id="jXTK6wrwz0z1EruY5HuL-2" value="Main함수" style="rounded=1;whiteSpace=wrap;html=1;fontSize=12;glass=0;strokeWidth=1;shadow=0;" vertex="1" parent="1">
          <mxGeometry x="170" y="90" width="120" height="40" as="geometry" />
        </mxCell>
        <mxCell id="jXTK6wrwz0z1EruY5HuL-3" value="Yes" style="rounded=0;html=1;jettySize=auto;orthogonalLoop=1;fontSize=11;endArrow=block;endFill=0;endSize=8;strokeWidth=1;shadow=0;labelBackgroundColor=none;edgeStyle=orthogonalEdgeStyle;" edge="1" parent="1">
          <mxGeometry y="20" relative="1" as="geometry">
            <mxPoint as="offset" />
            <mxPoint x="231" y="260" as="sourcePoint" />
            <mxPoint x="231" y="300" as="targetPoint" />
          </mxGeometry>
        </mxCell>
        <mxCell id="jXTK6wrwz0z1EruY5HuL-4" value="No" style="edgeStyle=orthogonalEdgeStyle;rounded=0;html=1;jettySize=auto;orthogonalLoop=1;fontSize=11;endArrow=block;endFill=0;endSize=8;strokeWidth=1;shadow=0;labelBackgroundColor=none;" edge="1" parent="1" source="jXTK6wrwz0z1EruY5HuL-5">
          <mxGeometry y="10" relative="1" as="geometry">
            <mxPoint as="offset" />
            <mxPoint x="330" y="220" as="targetPoint" />
          </mxGeometry>
        </mxCell>
        <mxCell id="jXTK6wrwz0z1EruY5HuL-5" value="Loader&lt;br&gt;명령" style="rhombus;whiteSpace=wrap;html=1;shadow=0;fontFamily=Helvetica;fontSize=12;align=center;strokeWidth=1;spacing=6;spacingTop=-4;" vertex="1" parent="1">
          <mxGeometry x="180" y="180" width="100" height="80" as="geometry" />
        </mxCell>
        <mxCell id="jXTK6wrwz0z1EruY5HuL-6" value="" style="edgeStyle=orthogonalEdgeStyle;rounded=0;orthogonalLoop=1;jettySize=auto;html=1;" edge="1" parent="1">
          <mxGeometry relative="1" as="geometry">
            <mxPoint x="436" y="219.41000000000008" as="sourcePoint" />
            <mxPoint x="486" y="219.41000000000008" as="targetPoint" />
          </mxGeometry>
        </mxCell>
        <mxCell id="jXTK6wrwz0z1EruY5HuL-7" style="edgeStyle=orthogonalEdgeStyle;rounded=0;orthogonalLoop=1;jettySize=auto;html=1;" edge="1" parent="1" source="jXTK6wrwz0z1EruY5HuL-8">
          <mxGeometry relative="1" as="geometry">
            <mxPoint x="383" y="300" as="targetPoint" />
          </mxGeometry>
        </mxCell>
        <mxCell id="jXTK6wrwz0z1EruY5HuL-8" value="Progaddr&lt;br&gt;명령" style="rhombus;whiteSpace=wrap;html=1;" vertex="1" parent="1">
          <mxGeometry x="330" y="180" width="106" height="80" as="geometry" />
        </mxCell>
        <mxCell id="jXTK6wrwz0z1EruY5HuL-9" style="edgeStyle=orthogonalEdgeStyle;rounded=0;orthogonalLoop=1;jettySize=auto;html=1;exitX=1;exitY=0.5;exitDx=0;exitDy=0;" edge="1" parent="1" source="jXTK6wrwz0z1EruY5HuL-10">
          <mxGeometry relative="1" as="geometry">
            <mxPoint x="300" y="100" as="targetPoint" />
            <Array as="points">
              <mxPoint x="800" y="220" />
              <mxPoint x="800" y="100" />
            </Array>
          </mxGeometry>
        </mxCell>
        <mxCell id="jXTK6wrwz0z1EruY5HuL-10" value="Run 명령" style="rhombus;whiteSpace=wrap;html=1;" vertex="1" parent="1">
          <mxGeometry x="655" y="180" width="100" height="80" as="geometry" />
        </mxCell>
        <mxCell id="jXTK6wrwz0z1EruY5HuL-11" value="No" style="text;html=1;strokeColor=none;fillColor=none;align=center;verticalAlign=middle;whiteSpace=wrap;rounded=0;" vertex="1" parent="1">
          <mxGeometry x="436" y="200" width="40" height="20" as="geometry" />
        </mxCell>
        <mxCell id="jXTK6wrwz0z1EruY5HuL-12" value="Loader 함수 호출" style="rounded=1;whiteSpace=wrap;html=1;" vertex="1" parent="1">
          <mxGeometry x="170" y="300" width="120" height="60" as="geometry" />
        </mxCell>
        <mxCell id="jXTK6wrwz0z1EruY5HuL-13" style="edgeStyle=orthogonalEdgeStyle;rounded=0;orthogonalLoop=1;jettySize=auto;html=1;entryX=0;entryY=0.5;entryDx=0;entryDy=0;" edge="1" parent="1" source="jXTK6wrwz0z1EruY5HuL-14" target="jXTK6wrwz0z1EruY5HuL-5">
          <mxGeometry relative="1" as="geometry">
            <mxPoint x="130" y="220" as="targetPoint" />
            <Array as="points">
              <mxPoint x="80" y="440" />
              <mxPoint x="80" y="220" />
            </Array>
          </mxGeometry>
        </mxCell>
        <mxCell id="jXTK6wrwz0z1EruY5HuL-14" value="Pass 1" style="rounded=1;whiteSpace=wrap;html=1;" vertex="1" parent="1">
          <mxGeometry x="170" y="410" width="120" height="60" as="geometry" />
        </mxCell>
        <mxCell id="jXTK6wrwz0z1EruY5HuL-15" value="" style="endArrow=classic;html=1;exitX=0.5;exitY=1;exitDx=0;exitDy=0;entryX=0.5;entryY=0;entryDx=0;entryDy=0;" edge="1" parent="1" source="jXTK6wrwz0z1EruY5HuL-12" target="jXTK6wrwz0z1EruY5HuL-14">
          <mxGeometry width="50" height="50" relative="1" as="geometry">
            <mxPoint x="300" y="370" as="sourcePoint" />
            <mxPoint x="350" y="390" as="targetPoint" />
          </mxGeometry>
        </mxCell>
        <mxCell id="jXTK6wrwz0z1EruY5HuL-16" value="Error" style="text;html=1;strokeColor=none;fillColor=none;align=center;verticalAlign=middle;whiteSpace=wrap;rounded=0;" vertex="1" parent="1">
          <mxGeometry x="100" y="190" width="40" height="20" as="geometry" />
        </mxCell>
        <mxCell id="jXTK6wrwz0z1EruY5HuL-17" style="edgeStyle=orthogonalEdgeStyle;rounded=0;orthogonalLoop=1;jettySize=auto;html=1;" edge="1" parent="1" source="jXTK6wrwz0z1EruY5HuL-18">
          <mxGeometry relative="1" as="geometry">
            <mxPoint x="80" y="440" as="targetPoint" />
          </mxGeometry>
        </mxCell>
        <mxCell id="jXTK6wrwz0z1EruY5HuL-18" value="Pass 2" style="rounded=1;whiteSpace=wrap;html=1;" vertex="1" parent="1">
          <mxGeometry x="170" y="520" width="120" height="60" as="geometry" />
        </mxCell>
        <mxCell id="jXTK6wrwz0z1EruY5HuL-19" value="" style="endArrow=classic;html=1;entryX=0.5;entryY=0;entryDx=0;entryDy=0;" edge="1" parent="1" target="jXTK6wrwz0z1EruY5HuL-18">
          <mxGeometry width="50" height="50" relative="1" as="geometry">
            <mxPoint x="230" y="470" as="sourcePoint" />
            <mxPoint x="240" y="420" as="targetPoint" />
          </mxGeometry>
        </mxCell>
        <mxCell id="jXTK6wrwz0z1EruY5HuL-20" value="" style="endArrow=classic;html=1;exitX=0.5;exitY=1;exitDx=0;exitDy=0;" edge="1" parent="1" source="jXTK6wrwz0z1EruY5HuL-10">
          <mxGeometry width="50" height="50" relative="1" as="geometry">
            <mxPoint x="515" y="350" as="sourcePoint" />
            <mxPoint x="705" y="300" as="targetPoint" />
          </mxGeometry>
        </mxCell>
        <mxCell id="jXTK6wrwz0z1EruY5HuL-21" value="No" style="text;html=1;strokeColor=none;fillColor=none;align=center;verticalAlign=middle;whiteSpace=wrap;rounded=0;" vertex="1" parent="1">
          <mxGeometry x="755" y="200" width="40" height="20" as="geometry" />
        </mxCell>
        <mxCell id="jXTK6wrwz0z1EruY5HuL-22" value="Yes" style="text;html=1;strokeColor=none;fillColor=none;align=center;verticalAlign=middle;whiteSpace=wrap;rounded=0;" vertex="1" parent="1">
          <mxGeometry x="715" y="270" width="40" height="20" as="geometry" />
        </mxCell>
        <mxCell id="jXTK6wrwz0z1EruY5HuL-23" style="edgeStyle=orthogonalEdgeStyle;rounded=0;orthogonalLoop=1;jettySize=auto;html=1;" edge="1" parent="1" source="jXTK6wrwz0z1EruY5HuL-25">
          <mxGeometry relative="1" as="geometry">
            <mxPoint x="705" y="440" as="targetPoint" />
          </mxGeometry>
        </mxCell>
        <mxCell id="jXTK6wrwz0z1EruY5HuL-24" style="edgeStyle=orthogonalEdgeStyle;rounded=0;orthogonalLoop=1;jettySize=auto;html=1;" edge="1" parent="1" source="jXTK6wrwz0z1EruY5HuL-25">
          <mxGeometry relative="1" as="geometry">
            <mxPoint x="795" y="220" as="targetPoint" />
            <Array as="points">
              <mxPoint x="795" y="350" />
            </Array>
          </mxGeometry>
        </mxCell>
        <mxCell id="jXTK6wrwz0z1EruY5HuL-25" value="Break Point를&lt;br&gt;만나지 않았는가?" style="rhombus;whiteSpace=wrap;html=1;" vertex="1" parent="1">
          <mxGeometry x="640" y="300" width="130" height="100" as="geometry" />
        </mxCell>
        <mxCell id="jXTK6wrwz0z1EruY5HuL-26" value="끝까지 수행" style="rounded=1;whiteSpace=wrap;html=1;" vertex="1" parent="1">
          <mxGeometry x="645" y="440" width="120" height="60" as="geometry" />
        </mxCell>
        <mxCell id="jXTK6wrwz0z1EruY5HuL-27" value="Program address&lt;br&gt;갱신" style="rounded=1;whiteSpace=wrap;html=1;" vertex="1" parent="1">
          <mxGeometry x="323" y="300" width="120" height="60" as="geometry" />
        </mxCell>
        <mxCell id="jXTK6wrwz0z1EruY5HuL-28" value="Yes" style="text;html=1;strokeColor=none;fillColor=none;align=center;verticalAlign=middle;whiteSpace=wrap;rounded=0;" vertex="1" parent="1">
          <mxGeometry x="396" y="260" width="40" height="20" as="geometry" />
        </mxCell>
        <mxCell id="jXTK6wrwz0z1EruY5HuL-29" value="No" style="text;html=1;strokeColor=none;fillColor=none;align=center;verticalAlign=middle;whiteSpace=wrap;rounded=0;" vertex="1" parent="1">
          <mxGeometry x="755" y="330" width="40" height="20" as="geometry" />
        </mxCell>
        <mxCell id="jXTK6wrwz0z1EruY5HuL-30" value="Yes" style="text;html=1;strokeColor=none;fillColor=none;align=center;verticalAlign=middle;whiteSpace=wrap;rounded=0;" vertex="1" parent="1">
          <mxGeometry x="715" y="400" width="40" height="20" as="geometry" />
        </mxCell>
        <mxCell id="jXTK6wrwz0z1EruY5HuL-37" value="" style="edgeStyle=orthogonalEdgeStyle;rounded=0;orthogonalLoop=1;jettySize=auto;html=1;" edge="1" parent="1">
          <mxGeometry relative="1" as="geometry">
            <mxPoint x="600" y="219.41000000000008" as="sourcePoint" />
            <mxPoint x="650" y="219.41000000000008" as="targetPoint" />
          </mxGeometry>
        </mxCell>
        <mxCell id="jXTK6wrwz0z1EruY5HuL-38" style="edgeStyle=orthogonalEdgeStyle;rounded=0;orthogonalLoop=1;jettySize=auto;html=1;" edge="1" source="jXTK6wrwz0z1EruY5HuL-39" parent="1">
          <mxGeometry relative="1" as="geometry">
            <mxPoint x="547" y="300" as="targetPoint" />
          </mxGeometry>
        </mxCell>
        <mxCell id="jXTK6wrwz0z1EruY5HuL-39" value="Bp&lt;br&gt;명령" style="rhombus;whiteSpace=wrap;html=1;" vertex="1" parent="1">
          <mxGeometry x="494" y="180" width="106" height="80" as="geometry" />
        </mxCell>
        <mxCell id="jXTK6wrwz0z1EruY5HuL-40" value="No" style="text;html=1;strokeColor=none;fillColor=none;align=center;verticalAlign=middle;whiteSpace=wrap;rounded=0;" vertex="1" parent="1">
          <mxGeometry x="600" y="200" width="40" height="20" as="geometry" />
        </mxCell>
        <mxCell id="jXTK6wrwz0z1EruY5HuL-41" value="Bp 관련 명령 수행" style="rounded=1;whiteSpace=wrap;html=1;" vertex="1" parent="1">
          <mxGeometry x="487" y="300" width="120" height="60" as="geometry" />
        </mxCell>
        <mxCell id="jXTK6wrwz0z1EruY5HuL-42" value="Yes" style="text;html=1;strokeColor=none;fillColor=none;align=center;verticalAlign=middle;whiteSpace=wrap;rounded=0;" vertex="1" parent="1">
          <mxGeometry x="560" y="260" width="40" height="20" as="geometry" />
        </mxCell>
      </root>
    </mxGraphModel>
  </diagram>
</mxfile>
